<?xml version="1.0" encoding="UTF-8"?>
<svg id="Layer_1" xmlns="http://www.w3.org/2000/svg" version="1.1" viewBox="0 0 129 29.9">
  <!-- Generator: Adobe Illustrator 30.5.1, SVG Export Plug-In . SVG Version: 2.1.4 Build 3)  -->
  <defs>
    <style>
      .st0 {
        fill-rule: evenodd;
      }
    </style>
  </defs>
  <path class="st0" d="M5.9,9.1c-.3.7-.4,1.6-.4,2.5s.1,1.4.4,2.1c.3.6.7,1.2,1.1,1.7.5.5,1,.9,1.7,1.1.7.3,1.3.4,2.1.4s1,0,1.5-.2c.5-.1.9-.4,1.4-.6.4-.3.8-.6,1.1-1,.3-.4.6-.8.8-1.3l3.9,4c-.5.7-1.1,1.3-1.7,1.9-.7.6-1.4,1-2.1,1.4-.8.4-1.6.7-2.4.9-.8.2-1.7.3-2.6.3-1.5,0-2.9-.3-4.2-.8-1.3-.6-2.5-1.3-3.4-2.3-1-1-1.8-2.1-2.3-3.4-.6-1.3-.8-2.7-.8-4.2s.3-3.1.8-4.5c.6-1.4,1.3-2.6,2.3-3.7,1-1,2.1-1.9,3.4-2.5,1.3-.6,2.7-.9,4.2-.9s1.7.1,2.6.3c.8.2,1.7.5,2.4,1,.8.4,1.5.9,2.1,1.6.7.6,1.2,1.3,1.7,2.1l-3.9,4c-.2-.6-.5-1-.8-1.5-.3-.4-.7-.8-1.2-1.1-.4-.3-.9-.5-1.4-.7-.5-.2-1-.2-1.5-.2s-1.4.2-2.1.5c-.7.3-1.2.7-1.7,1.3-.5.5-.9,1.2-1.1,1.9h0ZM88.4,6.6c-.6-1.4-1.3-2.5-2.3-3.5-1-1-2.1-1.7-3.4-2.3-1.3-.5-2.7-.8-4.2-.8s-1.4,0-2,.3c-.7.2-1.3.4-1.9.7-.6.3-1.2.6-1.8,1.1-.6.4-1.1.8-1.6,1.3l-2.1-2.5h-16.5c-.9,0-1.8.2-2.6.5-.8.3-1.5.8-2.1,1.4-.6.6-1.1,1.3-1.4,2.1-.3.8-.5,1.7-.5,2.6s.2,1.8.5,2.6c.3.8.8,1.5,1.4,2.1.6.6,1.3,1.1,2.1,1.4.8.4,1.7.5,2.6.5h5.6c.4,0,.7,0,.9.2.3.1.4.4.4.7s-.1.7-.4.9c-.3.3-.6.4-4.3.4h-12.3V.8h-1.3l-2.1,2.5c-.5-.5-1-.9-1.6-1.3-.6-.4-1.2-.8-1.8-1.1-.6-.3-1.3-.5-2-.7-.7-.2-1.3-.3-2-.3-1.5,0-2.9.3-4.2.8-1.3.5-2.5,1.3-3.4,2.3-1,1-1.8,2.2-2.3,3.5-.6,1.4-.8,2.9-.8,4.5s.3,3.3.8,4.7c.6,1.4,1.3,2.5,2.3,3.5,1,1,2.1,1.7,3.4,2.2,1.3.5,2.7.7,4.2.7s1.3,0,1.9-.2c.7-.2,1.4-.4,2.1-.7.6-.3,1.2-.6,1.8-1,.6-.4,1.1-.8,1.6-1.3l2.1,2.9h17c.9,0,1.8-.2,2.6-.5.8-.3,1.5-.8,2.1-1.4.6-.6,1.1-1.3,1.4-2.1.4-.8.5-1.7.5-2.6s-.2-1.8-.5-2.5c-.4-.8-.8-1.4-1.4-2-.6-.6-1.3-1-2.1-1.3-.8-.3-1.7-.5-2.6-.5h-5.6c-.4,0-.7-.1-.9-.4-.3-.3-.4-.6-.4-1s.1-.7.4-.9c.3-.3.6-.4.9-.4h15.2v23.7h0c2.1-2.1,3.3-3.3,5.4-5.4v-4c.4.2.8.5,1.3.7.4.2.9.4,1.3.6.5.2.9.3,1.4.4.5.1.9.2,1.4.2,1.5,0,2.9-.3,4.2-.8,1.3-.5,2.5-1.2,3.4-2.2,1-1,1.8-2.1,2.3-3.5.6-1.4.8-2.9.8-4.7s-.3-3.2-.8-4.6h0ZM36.5,13.3c-.3.7-.7,1.3-1.2,1.8-.5.5-1.1,1-1.7,1.3-.7.3-1.3.5-2.1.5s-1.4-.1-2.1-.4c-.7-.2-1.2-.6-1.7-1.1-.5-.5-.9-1.1-1.1-1.8-.3-.7-.4-1.5-.4-2.4s.1-1.7.4-2.4c.3-.7.7-1.3,1.1-1.8.5-.5,1-.9,1.7-1.1.7-.2,1.3-.4,2.1-.4s1.4.2,2.1.5c.7.3,1.2.7,1.7,1.3.5.5.9,1.1,1.2,1.8s.4,1.4.4,2.1-.1,1.4-.4,2.1h0ZM83.4,13.5c-.3.7-.7,1.3-1.2,1.8-.5.5-1.1.9-1.7,1.2-.7.3-1.4.4-2.1.4s-1.4-.1-2.1-.4c-.7-.3-1.2-.7-1.7-1.2-.5-.5-.9-1.1-1.2-1.8-.3-.7-.4-1.5-.4-2.3s.1-1.7.4-2.4c.3-.7.7-1.3,1.2-1.8.5-.5,1.1-.9,1.7-1.1.7-.3,1.3-.4,2.1-.4s1.4.1,2.1.4c.7.3,1.2.6,1.7,1.1.5.5.9,1.1,1.2,1.8.3.7.4,1.5.4,2.4s-.1,1.6-.4,2.3h0ZM98.3,1.5c-1.1.4-2.1,1-3,1.8l-1.8-2.5h-1.3v21.1h5.4v-11.6c0-.6.1-1.1.3-1.6.2-.5.5-.9.9-1.3.4-.4.8-.7,1.3-.9.5-.2,1-.3,1.6-.3h4.8V.8h-4.8c-1.2,0-2.3.2-3.4.6h0ZM127.7.8l-2.1,2.5c-.5-.5-1-.9-1.6-1.3-.6-.4-1.2-.8-1.8-1.1-.6-.3-1.3-.5-2-.7-.7-.2-1.3-.3-2-.3-1.5,0-2.9.3-4.2.8-1.3.5-2.5,1.3-3.4,2.3-1,1-1.8,2.2-2.3,3.5-.6,1.4-.8,2.9-.8,4.5s.3,3.3.8,4.7c.6,1.4,1.3,2.5,2.3,3.5,1,1,2.1,1.7,3.4,2.2,1.3.5,2.7.7,4.2.7s1.4,0,2-.3c.7-.2,1.3-.4,1.9-.7.6-.3,1.2-.6,1.8-1,.6-.4,1.1-.8,1.6-1.3l2.1,2.9h1.3V.8h-1.3ZM123.2,13.3c-.3.7-.7,1.3-1.2,1.8-.5.5-1.1,1-1.7,1.3-.7.3-1.3.5-2.1.5s-1.4-.1-2.1-.4c-.7-.2-1.2-.6-1.7-1.1-.5-.5-.9-1.1-1.1-1.8-.3-.7-.4-1.5-.4-2.4s.1-1.7.4-2.4c.3-.7.7-1.3,1.1-1.8.5-.5,1-.9,1.7-1.1.7-.2,1.3-.4,2.1-.4s1.4.2,2.1.5c.7.3,1.2.7,1.7,1.3.5.5.9,1.1,1.2,1.8.3.7.4,1.4.4,2.1s-.1,1.4-.4,2.1h0Z"/>
</svg>